<svg width="50" height="50" viewBox="0 0 50 50" fill="none" xmlns="http://www.w3.org/2000/svg">
<path d="M31.2502 2.6875V47.3125L11.9522 36.4583H2.0835V13.5417H11.9522L31.2502 2.6875ZM10.4147 17.7083H6.25016V32.2917H10.4147V17.7083ZM14.5814 33.1562L27.0835 40.1875V9.8125L14.5814 16.8417V33.1562ZM43.7064 14.5458L44.9627 16.2083C46.8748 18.7408 47.9087 21.8278 47.9076 25.001C47.9064 28.1743 46.8703 31.2606 44.9564 33.7917L43.7002 35.4542L40.3773 32.9417L41.6335 31.2792C43.0012 29.4709 43.7417 27.2659 43.7424 24.9986C43.7432 22.7314 43.0042 20.5258 41.6377 18.7167L40.3814 17.0563L43.7064 14.5458ZM37.8877 18.9375L39.1439 20.6C40.1001 21.8661 40.6173 23.4096 40.6169 24.9962C40.6165 26.5828 40.0986 28.126 39.1418 29.3917L37.8835 31.0542L34.5627 28.5417L35.8189 26.8812C36.2294 26.3389 36.4516 25.6774 36.452 24.9972C36.4524 24.3171 36.2308 23.6553 35.821 23.1125L34.5647 21.45L37.8877 18.9375Z" fill="#A2A2AD"/>
</svg>
