<svg width="100" height="100" viewBox="0 0 100 100" fill="none" xmlns="http://www.w3.org/2000/svg">
<path d="M88.8752 53.7917C89.2502 60.25 86.2919 66.4584 81.0002 70.2501L84.2086 76.4584C85.1669 78.3334 85.2919 80.5417 84.4586 82.5001C83.6669 84.4584 82.0419 86.0001 80.0419 86.6667L76.7502 87.7084C75.3794 88.1683 73.9003 88.1951 72.5138 87.785C71.1272 87.3751 69.9005 86.5482 69.0002 85.4167L60.1669 75.0001C56.4586 74.3751 52.9586 72.7917 50.0002 70.4167C47.9169 71.0417 45.8336 71.375 43.7502 71.375C40.0836 71.375 36.4169 70.2501 33.3336 68.0834C31.1252 68.7501 28.8752 69.0417 26.5836 69C23.2919 69.0417 20.0419 68.3751 17.0002 67.1251C14.071 65.8207 11.568 63.7184 9.77747 61.0584C7.98694 58.3984 6.98119 55.2881 6.87524 52.0834C6.5419 49.0834 7.0419 46.0417 8.33357 43.2917C7.12524 40.1667 7.00024 36.7501 8.0419 33.5834C9.58357 29.6251 12.5002 26.3334 16.1252 24.2501C18.5419 17.2084 25.3336 12.5001 32.7919 13.0001C39.4586 6.75005 49.6669 6.08339 57.0836 11.4584C58.8336 11.0001 60.6669 10.7501 62.5002 10.7501C68.1669 10.6251 73.5419 13.1251 77.0836 17.5834C85.5836 19.7917 91.6669 27.3751 92.0002 36.2084C92.2086 40.8334 90.9586 45.375 88.4169 49.25C88.7086 50.75 88.8752 52.2501 88.8752 53.7917ZM68.0419 47.9167C70.4169 48.2084 72.2919 50 72.2919 52.375C72.2919 53.4801 71.8529 54.5399 71.0715 55.3213C70.2901 56.1027 69.2303 56.5417 68.1252 56.5417H65.5002C64.1669 60.2917 61.8336 63.5834 58.7502 66.0834C59.7919 66.4584 60.8752 66.6667 61.9586 66.9584C83.3336 66.6667 80.8336 53.625 80.8336 53.4167C80.7799 51.9992 80.4473 50.6062 79.8548 49.3173C79.2622 48.0285 78.4214 46.8691 77.3804 45.9055C76.3394 44.9418 75.1186 44.1929 73.7879 43.7015C72.4572 43.2101 71.0427 42.9859 69.6252 43.0417C68.5202 43.0417 67.4604 42.6027 66.679 41.8213C65.8976 41.0399 65.4586 39.9801 65.4586 38.8751C65.4586 37.77 65.8976 36.7102 66.679 35.9288C67.4604 35.1474 68.5202 34.7084 69.6252 34.7084C74.7502 34.8334 79.6669 36.7501 83.5003 40.1251C83.7086 38.9167 83.8336 37.6667 83.8336 36.4167C83.5836 31.2501 81.2502 26.7501 71.8752 25.8751C66.6669 13.5417 53.5419 20.3751 53.5419 24.2084C53.4169 25.1667 54.4169 27.2084 54.5836 27.3334C55.6886 27.3334 56.7485 27.7724 57.5299 28.5538C58.3113 29.3352 58.7502 30.395 58.7502 31.5001C58.7502 33.7917 56.8752 35.6667 54.5836 35.6667C52.3752 35.5834 50.2919 34.7501 48.6252 33.3334C46.6252 34.6251 44.3336 35.4167 41.9586 35.6667C39.5836 35.8751 37.6252 34.2084 37.5002 31.9167C37.4247 31.3726 37.4609 30.8188 37.6066 30.2892C37.7522 29.7595 38.0044 29.2651 38.3475 28.8362C38.6907 28.4073 39.1177 28.0528 39.6024 27.7944C40.0872 27.536 40.6195 27.3791 41.1669 27.3334C41.8336 27.2501 45.0836 26.7501 45.0836 24.1251C45.0836 21.3751 46.1252 18.7501 47.9169 16.6667C44.0836 15.6251 39.9586 17.0001 35.7919 22.0417C28.1252 20.8334 25.0002 21.8751 22.7086 30.0001C18.7502 31.9584 16.6669 33.3334 15.7502 37.5001C20.2502 36.5834 24.8752 36.9584 29.1669 38.5417C31.2502 39.3334 32.4169 41.6667 31.6252 43.9167C30.8336 46.0834 28.4169 47.1667 26.2502 46.3751C23.2086 45.0417 19.7919 44.9584 16.6669 46.125C15.3336 47.25 15.3336 49.5834 15.3336 51.4167C15.3336 54.5001 16.8752 57.3751 19.5002 59.0417C21.7086 60.1667 24.1669 60.75 26.6252 60.7084C26.0002 59.625 25.4586 58.5001 25.0002 57.3334C24.6722 56.2629 24.7721 55.1069 25.279 54.1085C25.7858 53.1101 26.6601 52.3472 27.7179 51.9802C28.7756 51.6132 29.9345 51.6708 30.9508 52.1407C31.967 52.6107 32.7614 53.4564 33.1669 54.5001C34.8336 59.2501 39.0836 62.5001 44.0836 63.0417C49.7919 62.7501 54.8752 59.3751 57.3752 54.1667C58.3336 48.4167 62.9586 47.9167 68.0419 47.9167ZM76.3752 79.0417L73.7919 73.6251L70.8336 74.2917L75.0002 79.5001L76.3752 79.0417ZM57.0002 43.1667C57.0365 42.1023 56.6637 41.0644 55.9585 40.2663C55.2534 39.4681 54.2693 38.9703 53.2086 38.8751C50.2502 38.7084 47.3752 39.7084 45.1669 41.6667C42.7919 44.0834 41.5419 47.4167 41.6669 50.7917C41.6669 51.8968 42.1059 52.9566 42.8873 53.738C43.6687 54.5194 44.7285 54.9584 45.8336 54.9584C48.2086 54.9584 50.0002 53.0834 50.0002 50.7917C50.0002 49.6667 50.2919 48.5417 50.9586 47.6251C51.4586 47.2084 52.0836 47 52.7502 47C55.0419 47.125 57.0002 45.4167 57.0002 43.1667Z" fill="#A2A2AD"/>
</svg>
