<svg width="100" height="100" viewBox="0 0 100 100" fill="none" xmlns="http://www.w3.org/2000/svg">
<path d="M18.5003 18.5001C19.6722 17.3297 21.2608 16.6723 22.917 16.6723C24.5733 16.6723 26.1618 17.3297 27.3337 18.5001L50.0003 41.1584L72.667 18.5001C73.247 17.9201 73.9356 17.46 74.6934 17.1461C75.4512 16.8322 76.2634 16.6707 77.0837 16.6707C77.9039 16.6707 78.7161 16.8322 79.474 17.1461C80.2318 17.46 80.9203 17.9201 81.5003 18.5001C82.0803 19.0801 82.5404 19.7687 82.8543 20.5265C83.1682 21.2843 83.3298 22.0965 83.3298 22.9168C83.3298 23.737 83.1682 24.5492 82.8543 25.307C82.5404 26.0649 82.0803 26.7534 81.5003 27.3334L58.842 50.0001L81.5003 72.6668C82.6717 73.8381 83.3298 75.4269 83.3298 77.0834C83.3298 78.74 82.6717 80.3287 81.5003 81.5001C80.329 82.6715 78.7402 83.3295 77.0837 83.3295C75.4271 83.3295 73.8384 82.6715 72.667 81.5001L50.0003 58.8418L27.3337 81.5001C26.1623 82.6715 24.5736 83.3295 22.917 83.3295C21.2604 83.3295 19.6717 82.6715 18.5003 81.5001C17.329 80.3287 16.6709 78.74 16.6709 77.0834C16.6709 75.4269 17.329 73.8381 18.5003 72.6668L41.1587 50.0001L18.5003 27.3334C17.3299 26.1616 16.6725 24.573 16.6725 22.9168C16.6725 21.2605 17.3299 19.672 18.5003 18.5001Z" fill="#262537"/>
</svg>
