<svg width="94" height="88" viewBox="0 0 94 88" fill="none" xmlns="http://www.w3.org/2000/svg">
<path d="M73.9478 87.503C73.2901 87.5055 72.6483 87.3005 72.1139 86.917L46.9947 68.7061L21.8756 86.917C21.3389 87.3063 20.6924 87.5148 20.0294 87.5124C19.3665 87.5099 18.7215 87.2968 18.1877 86.9036C17.6539 86.5105 17.2589 85.9578 17.0599 85.3254C16.8609 84.693 16.8682 84.0138 17.0807 83.3858L26.8775 54.3682L1.48691 36.9561C0.936927 36.5794 0.521836 36.0366 0.302279 35.4072C0.0827225 34.7777 0.0702075 34.0946 0.266563 33.4575C0.462918 32.8205 0.857853 32.2629 1.39366 31.8662C1.92948 31.4696 2.57808 31.2547 3.24472 31.253H34.5689L44.0221 2.16118C44.2257 1.5331 44.6231 0.985662 45.1571 0.597398C45.6911 0.209134 46.3344 0 46.9947 0C47.655 0 48.2983 0.209134 48.8323 0.597398C49.3664 0.985662 49.7637 1.5331 49.9674 2.16118L59.4205 31.2627H90.7447C91.4122 31.2624 92.0622 31.4758 92.5996 31.8717C93.137 32.2675 93.5336 32.8251 93.7312 33.4626C93.9288 34.1002 93.9171 34.7842 93.6977 35.4146C93.4784 36.0451 93.063 36.5887 92.5123 36.9659L67.1119 54.3682L76.9029 83.378C77.0616 83.8477 77.1062 84.3483 77.0331 84.8387C76.96 85.329 76.7713 85.7949 76.4826 86.1979C76.1939 86.6009 75.8135 86.9294 75.3727 87.1563C74.932 87.3833 74.4436 87.5021 73.9478 87.503Z" fill="black"/>
</svg>
