<svg width="100" height="100" viewBox="0 0 100 100" fill="none" xmlns="http://www.w3.org/2000/svg">
<path d="M44.7499 48.8334C46.7082 53.9584 46.4999 59.2918 40.6249 61.4168C28.5415 65.8751 25.8332 54.1668 25.6665 53.5834L44.7499 48.8334ZM23.7915 45.4584L41.7915 41.0001C40.9999 36.6251 42.2082 32.2501 42.2082 27.0834C42.2082 20.0834 36.6665 6.37509 27.8332 8.58343C17.7499 11.0834 16.2915 22.2918 16.6665 27.7084C17.1665 33.1251 23.4999 44.7084 23.7915 45.4584ZM74.3749 82.7084C74.2499 83.3334 71.4999 95.0001 59.4165 90.5834C53.5832 88.4168 53.3332 83.0834 55.2915 77.9584L74.3749 82.7084ZM83.3332 56.8751C83.7499 51.4584 82.3332 40.2084 72.2082 37.7084C63.4165 35.4168 57.8749 49.2084 57.8749 56.2501C57.8749 61.3751 59.0415 65.7501 58.3332 70.1251L76.2499 74.5834C76.5832 73.8334 82.8749 62.2501 83.3332 56.8751Z" fill="#A2A2AD"/>
</svg>
