<svg width="151" height="154" viewBox="0 0 151 154" fill="none" xmlns="http://www.w3.org/2000/svg">
<path d="M45.3002 15.4C42.3881 15.4 39.5953 16.495 37.5359 18.4443C35.4765 20.3935 34.3191 23.0373 34.3184 25.7943V70H56.282V25.7943C56.2812 23.0373 55.1239 20.3935 53.0645 18.4443C51.0051 16.495 48.2122 15.4 45.3002 15.4Z" fill="white"/>
<path d="M56.3231 99.724C60.9988 101.872 64.7238 105.349 66.9002 109.596C69.0767 113.843 69.5784 118.615 68.3248 123.145C67.0712 127.675 64.1351 131.7 59.9876 134.576C55.8401 137.451 50.7217 139.009 45.4542 139C40.1866 138.991 35.0752 137.415 30.9404 134.525C26.8056 131.636 23.8871 127.6 22.6535 123.066C21.4199 118.532 21.9426 113.762 24.1378 109.522C26.333 105.282 30.0733 101.819 34.7584 99.6868V63.929C34.7584 63.929 53.7177 66.8825 56.284 62L56.3231 99.724Z" fill="#80C2FF"/>
<path d="M71.143 28C69.1661 28.1651 67.3416 29.0051 66.0612 30.3397C64.7807 31.6744 64.1464 33.3972 64.2944 35.1385L61.8107 54.381L59.0273 59.4795C59.0273 60.0147 60.4298 60.327 60.7727 60.1505L73.7132 56.9099C73.8362 56.7794 73.9947 56.6783 74.174 56.6161C74.3533 56.5538 74.5476 56.5325 74.7388 56.5541H122.167C124.144 56.389 125.968 55.549 127.249 54.2143C128.529 52.8797 129.163 51.1568 129.015 49.4156V35.1385C129.163 33.3972 128.529 31.6744 127.249 30.3397C125.968 29.0051 124.144 28.1651 122.167 28H71.143Z" fill="white"/>
<path d="M47.8389 63.9744C51.3326 63.7464 54.7413 62.94 57.8757 61.6L57.926 97.6356C57.9199 98.7053 58.3418 99.7446 59.1217 100.581C63.9733 105.696 68.6362 110.557 68.6362 117.982C68.6043 120.561 67.9725 123.109 66.7774 125.477C65.5823 127.845 63.848 129.985 61.6757 131.774C59.5033 133.562 56.9364 134.962 54.1248 135.892C51.3132 136.823 48.3132 137.265 45.2998 137.192C45.2998 137.192 67.8999 122.628 49.0848 105.448C48.269 104.453 47.8377 103.265 47.8515 102.051L47.8389 63.9744Z" fill="#73AAFC"/>
<path d="M50.903 77.2874C48.4774 77.6643 46.0163 77.834 43.5538 77.7942C38.7193 77.7942 34.7969 77.2955 34.7969 76.6841M50.903 91.9629C48.4774 92.3397 46.0163 92.5095 43.5538 92.4697C38.7193 92.4697 34.7969 91.9709 34.7969 91.3596M48.6894 62.9069C46.3842 63.1493 44.0593 63.2121 41.7416 63.0946C36.9071 63.0946 34.7999 62.62 34.7999 62.0086M50.903 47.9365C48.4774 48.3133 46.0163 48.483 43.5538 48.4432C38.7193 48.4432 34.7969 47.9472 34.7969 47.3331" stroke="black" stroke-width="2" stroke-linecap="round" stroke-linejoin="round"/>
<path d="M56.7773 69.8116V98.8542C56.8588 99.7069 57.1526 100.533 57.6377 101.274C58.1228 102.015 58.7873 102.653 59.5838 103.142C62.7888 105.422 65.2026 108.451 66.5498 111.882C67.8969 115.314 68.1233 119.01 67.203 122.55C66.2827 126.089 64.2529 129.33 61.345 131.901C58.4371 134.472 54.7682 136.271 50.7569 137.092C46.7457 137.913 42.5535 137.723 38.6586 136.544C34.7638 135.365 31.323 133.245 28.7289 130.425C26.1348 127.604 24.4918 124.198 23.9873 120.594C23.4828 116.99 24.1371 113.333 25.8756 110.041" stroke="black" stroke-width="2" stroke-linecap="round" stroke-linejoin="round"/>
<path d="M32.042 103.12C32.8368 102.639 33.4978 102.006 33.9754 101.268C34.453 100.529 34.7349 99.705 34.7998 98.8568V25.2864C34.8478 22.7445 36.0264 20.3211 38.0817 18.5385C40.137 16.7559 42.9043 15.7569 45.7871 15.7569C48.6698 15.7569 51.4371 16.7559 53.4924 18.5385C55.5477 20.3211 56.7264 22.7445 56.7743 25.2864L56.8078 47.8855" stroke="black" stroke-width="2" stroke-linecap="round" stroke-linejoin="round"/>
<path d="M50.903 33.2609C48.4774 33.6378 46.0163 33.8075 43.5538 33.7677C38.7193 33.7677 34.7969 33.2716 34.7969 32.6576" stroke="black" stroke-width="2" stroke-linecap="round" stroke-linejoin="round"/>
<path d="M71.5129 27.7613C69.5671 27.9242 67.7713 28.7535 66.5109 30.071C65.2506 31.3885 64.6263 33.0892 64.7719 34.8081L63.1908 52.7951L56.1366 62.2043C56.0793 62.2874 56.0454 62.3814 56.0378 62.4784C56.0302 62.5755 56.049 62.6727 56.0928 62.762C56.1366 62.8513 56.204 62.93 56.2894 62.9916C56.3747 63.0532 56.4756 63.0958 56.5835 63.116C56.5835 63.116 74.7177 55.9485 75.0522 55.9485H121.735C123.681 55.7855 125.476 54.9563 126.737 53.6388C127.997 52.3213 128.621 50.6206 128.476 48.9017V34.8081C128.621 33.0892 127.997 31.3885 126.737 30.071C125.476 28.7535 123.681 27.9242 121.735 27.7613H71.5129Z" stroke="black" stroke-width="2" stroke-miterlimit="10"/>
</svg>
