<svg width="330" height="330" viewBox="0 0 330 330" fill="none" xmlns="http://www.w3.org/2000/svg">
<g clip-path="url(#clip0_27_80)">
<path d="M329 165C329 255.575 255.575 329 165 329C74.4253 329 1 255.575 1 165C1 74.4253 74.4253 1 165 1C255.575 1 329 74.4253 329 165Z" fill="url(#paint0_radial_27_80)" stroke="white" stroke-width="2"/>
<g filter="url(#filter0_d_27_80)">
<path d="M178.131 224.211L153.78 258.757V190.39V154.676V139.719V123.198V122.198H152.78H89.4713L75.3409 105.651C135.49 105.512 195.611 105.54 255.704 105.736C250.282 111.492 244.764 117.156 239.15 122.725H179.131H178.131V123.725V168.051V224.211Z" fill="white" stroke="white" stroke-width="2"/>
<path d="M182.286 211.903L149.972 257.766V209.648V158.374V136.9V113.181V112.181H148.972H66.4215L47.3475 87.5553C126.216 87.3522 205.048 87.3933 283.843 87.6782C276.542 96.2407 269.107 104.662 261.54 112.938H183.286H182.286V113.938V177.575V211.903Z" fill="url(#paint1_radial_27_80)" stroke="white" stroke-width="2"/>
</g>
</g>
<defs>
<filter id="filter0_d_27_80" x="5.57143" y="50.4286" width="320.429" height="255.482" filterUnits="userSpaceOnUse" color-interpolation-filters="sRGB">
<feFlood flood-opacity="0" result="BackgroundImageFix"/>
<feColorMatrix in="SourceAlpha" type="matrix" values="0 0 0 0 0 0 0 0 0 0 0 0 0 0 0 0 0 0 127 0" result="hardAlpha"/>
<feOffset dy="4"/>
<feGaussianBlur stdDeviation="20"/>
<feComposite in2="hardAlpha" operator="out"/>
<feColorMatrix type="matrix" values="0 0 0 0 1 0 0 0 0 1 0 0 0 0 1 0 0 0 0.5 0"/>
<feBlend mode="normal" in2="BackgroundImageFix" result="effect1_dropShadow_27_80"/>
<feBlend mode="normal" in="SourceGraphic" in2="effect1_dropShadow_27_80" result="shape"/>
</filter>
<radialGradient id="paint0_radial_27_80" cx="0" cy="0" r="1" gradientUnits="userSpaceOnUse" gradientTransform="translate(165 165) scale(144.535 266.94)">
<stop stop-color="#000033"/>
<stop offset="1" stop-color="#5F1495"/>
</radialGradient>
<radialGradient id="paint1_radial_27_80" cx="0" cy="0" r="1" gradientUnits="userSpaceOnUse" gradientTransform="translate(165.786 173.675) scale(105.304 141.149)">
<stop stop-color="#000033"/>
<stop offset="1" stop-color="#5F1495"/>
</radialGradient>
<clipPath id="clip0_27_80">
<rect width="330" height="330" fill="white"/>
</clipPath>
</defs>
</svg>
